PathFileType	4	(X/Y/Z)	Patient4_TMGait_0pt5_02_left_45.trc.trc
DataRate	CameraRate	NumFrames	NumMarkers	Units	OrigDataRate	OrigDataStartFrame	OrigNumFrames
76.086956521739	76.086956521739	4	33	mm	76.086956521739	71	       141
Frame#	Time	Sacral			L.Shoulder			Chest			R.Shoulder			Neck			R.ASIS			L.ASIS			R.Thigh.Superior			R.Thigh.Lateral			R.Thigh.Inferior			R.Patella			L.Thigh.Superior			L.Thigh.Lateral			L.Thigh.Inferior			L.Patella			L.Shank.Superior			L.Shank.Lateral			L.Shank.Inferior			R.Shank.Superior			R.Shank.Lateral			R.Shank.Inferior			R.Heel			R.Midfoot.Superior			R.Midfoot.Lateral			R.Toe			L.Heel			L.Midfoot.Lateral			L.Midfoot.Superior			L.Toe			L.Elbow			L.Wrist			R.Elbow			R.Wrist			
		X1	Y1	Z1	X2	Y2	Z2	X3	Y3	Z3	X4	Y4	Z4	X5	Y5	Z5	X6	Y6	Z6	X7	Y7	Z7	X8	Y8	Z8	X9	Y9	Z9	X10	Y10	Z10	X11	Y11	Z11	X12	Y12	Z12	X13	Y13	Z13	X14	Y14	Z14	X15	Y15	Z15	X16	Y16	Z16	X17	Y17	Z17	X18	Y18	Z18	X19	Y19	Z19	X20	Y20	Z20	X21	Y21	Z21	X22	Y22	Z22	X23	Y23	Z23	X24	Y24	Z24	X25	Y25	Z25	X26	Y26	Z26	X27	Y27	Z27	X28	Y28	Z28	X29	Y29	Z29	X30	Y30	Z30	X31	Y31	Z31	X32	Y32	Z32	X33	Y33	Z33	

71	58.940000000000	659.165312758786	1007.906900624785	430.756703482192	868.229835696183	1433.024861979380	263.764526048623	952.409830057309	1358.229864934947	433.091991531848	855.576681218291	1436.001346957102	599.320066011432	856.035256891921	1492.168660774546	414.397364592258	878.410188854782	939.833180003965	562.730005041202	883.952395775986	959.273093752180	286.071755655447	948.555726973897	763.590488359022	533.923947123256	903.218186192751	645.121301804074	608.123961484592	988.161603649264	603.479230971996	525.261684910527	1021.172916651421	521.119021448550	542.006777330357	889.323988995232	733.022839456734	317.001171633708	777.076912055186	635.852520560509	254.413367768975	838.369332462518	544.687044785846	320.132081751321	824.909789192815	477.831067761738	331.019226016993	794.134773330359	411.246083352651	323.006752988338	696.999806242364	303.324587530983	273.114028975319	737.494867881132	190.379173324974	348.073138088844	1006.434626052820	435.117451434569	552.466422107297	957.456010701269	320.617150137243	617.205657076191	1027.121366651142	235.874391237493	563.556035530550	936.103639144698	48.154311979196	535.345992202443	1098.141539726764	121.241789824095	572.744685004389	1021.749295526438	44.945110672766	607.672403635593	1224.349783175685	85.514163531761	597.610967961072	599.168100267985	39.014824107939	393.107949423452	671.791322965661	35.088434954833	311.594909077062	755.960715673957	95.526144256882	336.616324467262	883.463638614427	41.691015262528	306.250446962872	903.203642686066	1099.030132443357	108.721309057413	1145.509884602042	1015.162028656177	137.395038528155	702.555270762398	1124.734086894561	699.904460441581	673.724473211208	864.823515457224	702.505071987684	
72	58.953142857143	660.980843129099	1006.465434801622	432.176914331496	869.120445350070	1431.750628633353	265.431365369035	953.208329221753	1357.170654849983	434.849032004783	856.099791802250	1434.985157516190	600.936274301561	856.548626805566	1490.942418300284	415.986791673682	879.750827720611	938.200042652981	564.326122439294	885.484171038331	958.097759711099	287.715153088234	948.467282866966	760.611716131831	536.083371511631	900.852940696542	642.252131093147	609.504680963527	986.119972717444	600.332445064528	527.261162620382	1018.161378686870	518.723814152849	543.227990665947	887.769669693958	731.239250208888	318.204750567735	774.022871878578	635.718322345041	255.070659430746	833.726178140486	543.652890765094	320.822645082532	819.707469373700	477.068631400528	331.349691616025	788.453324780335	411.010318999340	323.337709179669	690.834400629627	303.519564003875	273.336093426409	731.116620966249	190.322196636656	348.180042307490	1004.532314223107	432.634869963591	553.595954870740	956.466138008596	317.469978028987	617.766752912643	1027.367969711235	233.686675679660	564.153542943875	938.489314730042	45.663207549444	535.068266385039	1099.756117872532	119.573775905051	573.238221333401	1023.698392679921	43.175201783932	607.860186957188	1226.024139195863	84.653435611977	598.670045983102	592.505657429181	38.935848636234	393.136269923853	665.130481674885	35.058591156478	311.632347775540	749.295649021863	95.504079028282	336.645609123797	876.787408839468	41.652786599030	306.263673713453	907.586489164040	1098.780270137429	109.785190876789	1151.799745979924	1022.225723940387	139.710488935170	701.649444621801	1124.749286864034	701.229282377198	672.048451265659	864.819841993195	703.503171265203	
73	58.966285714286	662.978360805443	1004.914550537520	433.855304974586	869.915283784843	1430.471456310888	267.291018786745	954.013502932885	1356.150677529487	436.780728260336	856.551883001616	1433.875156598445	602.767999251133	856.966402854368	1489.682851621187	417.793592789112	881.382618677315	936.557326487942	566.005513868358	887.164993122267	956.864218862808	289.500857703490	949.164763860287	757.961201438452	538.247296557001	899.259638975460	639.546725587723	610.658115438490	985.007699193089	597.557027262573	529.185727838322	1015.917298766976	516.301056787451	544.404753337972	886.471293328514	729.429083378922	319.520136064503	771.334329271337	635.515932134129	255.896622336745	829.549480574630	542.578472578330	321.663751522196	815.037907205130	476.197200783227	331.836317738579	783.192423253715	410.679371714699	323.812623959154	684.956825421896	303.751252603268	273.664627253148	724.861153993367	190.224517064453	348.328190974172	1002.755248386823	429.885193602212	554.554879442496	954.531154457073	314.498079589287	617.979492133754	1025.901311471993	231.126129190322	564.491057776477	937.460871322531	43.952196797832	534.492660309122	1098.566940384424	117.187932919335	573.562590714209	1022.064806476696	41.608235726034	607.900294848809	1224.441887121713	81.887734922069	599.735895564724	585.840505093220	38.871167003820	393.147275546017	658.482617078281	35.033011835539	311.672616313524	742.645304642112	95.487787588093	336.680560906233	870.137598180687	41.581552145557	306.272524568818	911.571781340374	1098.430952660928	111.084696218574	1157.272401391510	1028.351119800060	142.178007130944	701.585286719865	1124.161205805653	702.839207339713	671.951681649768	864.118024510017	704.799776615676	
74	58.979428571429	665.106311959423	1003.315871118055	435.788306769417	870.653263565500	1429.218638830707	269.336636403619	954.845903868150	1355.191532346751	438.888585622781	856.958626317102	1432.709419567835	604.814041814805	857.338766436478	1488.433673835469	419.810612726494	883.275752894968	934.963063706736	567.769534261511	888.940149429063	955.606018994543	291.425368012190	950.586591242808	755.658193603636	540.405441395184	898.392427404026	637.055511762181	611.584909436950	984.771150352528	595.189116836185	531.011413877990	1014.413941743474	513.917433314627	545.473590754705	885.517224378434	727.655741498039	320.918211991148	769.100005276895	635.250655028937	256.912553348030	825.976378592051	541.482714023391	322.653420020150	811.037324442539	475.212570067058	332.498280022029	778.487142278762	410.236288273534	324.444936817374	679.468730827734	304.036514461115	274.114659719968	718.782000855593	190.088001566343	348.520620740267	1001.192962557993	426.976687018618	555.307340761546	951.964578688005	311.715389981019	617.901167419330	1023.112080160299	228.266438291474	564.549109065856	933.616769338272	42.843477318740	533.717688497393	1095.123108190970	114.259462462720	573.677737208944	1017.541736270803	40.221843361920	607.817858580900	1220.284344934478	77.607124688872	600.665130283890	579.179794780251	38.865514279711	393.129032735272	651.859238896417	35.026599072985	311.709933094234	736.033933494553	95.482711445827	336.711714660465	863.528691848148	41.464406608474	306.273125319648	915.125846265251	1097.967212243748	112.630373402990	1161.960258545252	1033.458335206973	144.780145897566	702.315474638795	1123.019063806583	704.728970331124	673.393616128735	862.768075060697	706.424583943274	
